<svg id="visual" viewBox="0 0 1600 190" width="1600" height="190" xmlns="http://www.w3.org/2000/svg" xmlns:xlink="http://www.w3.org/1999/xlink" version="1.1"><g stroke-width="1" stroke-linejoin="bevel"><path d="M829 94.3L832 75.7L817.9 47.7Z" fill="#ffc0af" stroke="#ffc0af"></path><path d="M749.1 190L752 190L829 94.3Z" fill="#da361d" stroke="#da361d"></path><path d="M943.8 0L818.9 0L817.9 47.7Z" fill="#ffffff" stroke="#ffffff"></path><path d="M817.9 47.7L818.9 0L777 0Z" fill="#f8967d" stroke="#f8967d"></path><path d="M943.8 0L823.9 -17.7L818.9 0Z" fill="#ffd5c9" stroke="#ffd5c9"></path><path d="M818.9 0L823.9 -17.7L777 0Z" fill="#f28065" stroke="#f28065"></path><path d="M752 190L816.9 190L829 94.3Z" fill="#ffffff" stroke="#ffffff"></path><path d="M988.8 37.3L943.8 0L832 75.7Z" fill="#e35235" stroke="#e35235"></path><path d="M749.1 190L829 94.3L667.1 131.3Z" fill="#f8967d" stroke="#f8967d"></path><path d="M667.1 131.3L829 94.3L817.9 47.7Z" fill="#d00000" stroke="#d00000"></path><path d="M777 0L667.1 131.3L817.9 47.7Z" fill="#ffc0af" stroke="#ffc0af"></path><path d="M823.9 -17.7L674.1 0L777 0Z" fill="#f8967d" stroke="#f8967d"></path><path d="M777 0L674.1 0L667.1 131.3Z" fill="#fdab96" stroke="#fdab96"></path><path d="M823.9 -17.7L660.2 0L674.1 0Z" fill="#fdab96" stroke="#fdab96"></path><path d="M674.1 0L636.2 81.7L667.1 131.3Z" fill="#ffffff" stroke="#ffffff"></path><path d="M660.2 0L636.2 81.7L674.1 0Z" fill="#ffd5c9" stroke="#ffd5c9"></path><path d="M636.2 81.7L635.1 144.7L667.1 131.3Z" fill="#fdab96" stroke="#fdab96"></path><path d="M667.1 131.3L619.2 190L749.1 190Z" fill="#ffeae4" stroke="#ffeae4"></path><path d="M988.8 37.3L832 75.7L994.8 138.7Z" fill="#e35235" stroke="#e35235"></path><path d="M832 75.7L943.8 0L817.9 47.7Z" fill="#fdab96" stroke="#fdab96"></path><path d="M816.9 190L946.8 190L829 94.3Z" fill="#f28065" stroke="#f28065"></path><path d="M994.8 138.7L832 75.7L829 94.3Z" fill="#eb6a4d" stroke="#eb6a4d"></path><path d="M579.2 111.3L619.2 190L635.1 144.7Z" fill="#f28065" stroke="#f28065"></path><path d="M635.1 144.7L619.2 190L667.1 131.3Z" fill="#f8967d" stroke="#f8967d"></path><path d="M946.8 190L994.8 138.7L829 94.3Z" fill="#ffeae4" stroke="#ffeae4"></path><path d="M988.8 37.3L990.7 0L943.8 0Z" fill="#f28065" stroke="#f28065"></path><path d="M943.8 0L990.7 0L823.9 -17.7Z" fill="#e35235" stroke="#e35235"></path><path d="M1137.7 71.3L990.7 0L988.8 37.3Z" fill="#f28065" stroke="#f28065"></path><path d="M582.3 -1.7L579.2 111.3L636.2 81.7Z" fill="#e35235" stroke="#e35235"></path><path d="M636.2 81.7L579.2 111.3L635.1 144.7Z" fill="#ffc0af" stroke="#ffc0af"></path><path d="M823.9 -17.7L582.3 -1.7L660.2 0Z" fill="#ffc0af" stroke="#ffc0af"></path><path d="M660.2 0L582.3 -1.7L636.2 81.7Z" fill="#fdab96" stroke="#fdab96"></path><path d="M582.3 -1.7L514.4 65.3L579.2 111.3Z" fill="#ffffff" stroke="#ffffff"></path><path d="M579.2 111.3L456.3 190L619.2 190Z" fill="#e35235" stroke="#e35235"></path><path d="M514.4 65.3L489.3 105.7L579.2 111.3Z" fill="#eb6a4d" stroke="#eb6a4d"></path><path d="M582.3 -1.7L479.3 0L514.4 65.3Z" fill="#fdab96" stroke="#fdab96"></path><path d="M514.4 65.3L404.6 65.7L489.3 105.7Z" fill="#fdab96" stroke="#fdab96"></path><path d="M823.9 -17.7L479.3 0L582.3 -1.7Z" fill="#d00000" stroke="#d00000"></path><path d="M1128.7 190L1137.7 71.3L994.8 138.7Z" fill="#ffc0af" stroke="#ffc0af"></path><path d="M994.8 138.7L1137.7 71.3L988.8 37.3Z" fill="#e35235" stroke="#e35235"></path><path d="M440.4 190L456.3 190L426.6 131.3Z" fill="#ffc0af" stroke="#ffc0af"></path><path d="M489.3 105.7L456.3 190L579.2 111.3Z" fill="#eb6a4d" stroke="#eb6a4d"></path><path d="M1128.7 203.7L1128.7 190L994.8 138.7Z" fill="#d00000" stroke="#d00000"></path><path d="M816.9 190L1128.7 203.7L946.8 190Z" fill="#eb6a4d" stroke="#eb6a4d"></path><path d="M946.8 190L1128.7 203.7L994.8 138.7Z" fill="#f8967d" stroke="#f8967d"></path><path d="M1190.6 93.3L1163.6 70.7L1137.7 71.3Z" fill="#f28065" stroke="#f28065"></path><path d="M752 190L1128.7 203.7L816.9 190Z" fill="#f28065" stroke="#f28065"></path><path d="M749.1 190L1128.7 203.7L752 190Z" fill="#ffc0af" stroke="#ffc0af"></path><path d="M619.2 190L1128.7 203.7L749.1 190Z" fill="#da361d" stroke="#da361d"></path><path d="M456.3 190L1128.7 203.7L619.2 190Z" fill="#da361d" stroke="#da361d"></path><path d="M823.9 -17.7L439.4 0L479.3 0Z" fill="#f8967d" stroke="#f8967d"></path><path d="M479.3 0L404.6 65.7L514.4 65.3Z" fill="#f28065" stroke="#f28065"></path><path d="M426.6 131.3L456.3 190L489.3 105.7Z" fill="#ffeae4" stroke="#ffeae4"></path><path d="M456.3 190L95.9 196.7L1128.7 203.7Z" fill="#f8967d" stroke="#f8967d"></path><path d="M404.6 65.7L426.6 131.3L489.3 105.7Z" fill="#eb6a4d" stroke="#eb6a4d"></path><path d="M1190.6 93.3L1137.7 71.3L1128.7 190Z" fill="#eb6a4d" stroke="#eb6a4d"></path><path d="M1137.7 71.3L1223.6 0L990.7 0Z" fill="#eb6a4d" stroke="#eb6a4d"></path><path d="M439.4 0L404.6 65.7L479.3 0Z" fill="#da361d" stroke="#da361d"></path><path d="M426.6 131.3L416.6 190L440.4 190Z" fill="#da361d" stroke="#da361d"></path><path d="M393.4 125.7L416.6 190L426.6 131.3Z" fill="#da361d" stroke="#da361d"></path><path d="M440.4 190L95.9 196.7L456.3 190Z" fill="#ffd5c9" stroke="#ffd5c9"></path><path d="M1188.6 190L1190.6 93.3L1128.7 190Z" fill="#ffeae4" stroke="#ffeae4"></path><path d="M404.6 65.7L393.4 125.7L426.6 131.3Z" fill="#ffeae4" stroke="#ffeae4"></path><path d="M1128.7 203.7L1188.6 190L1128.7 190Z" fill="#eb6a4d" stroke="#eb6a4d"></path><path d="M1188.6 190L1223.4 130.3L1190.6 93.3Z" fill="#ffd5c9" stroke="#ffd5c9"></path><path d="M1242.4 83.7L1223.6 0L1190.6 93.3Z" fill="#ffc0af" stroke="#ffc0af"></path><path d="M1190.6 93.3L1223.6 0L1163.6 70.7Z" fill="#fdab96" stroke="#fdab96"></path><path d="M1163.6 70.7L1223.6 0L1137.7 71.3Z" fill="#f28065" stroke="#f28065"></path><path d="M990.7 0L1223.6 0L823.9 -17.7Z" fill="#f28065" stroke="#f28065"></path><path d="M439.4 0L357.6 0L404.6 65.7Z" fill="#ffc0af" stroke="#ffc0af"></path><path d="M404.6 65.7L252.7 98.3L393.4 125.7Z" fill="#eb6a4d" stroke="#eb6a4d"></path><path d="M154.9 -8.7L357.6 0L439.4 0Z" fill="#eb6a4d" stroke="#eb6a4d"></path><path d="M1223.4 130.3L1242.4 83.7L1190.6 93.3Z" fill="#f8967d" stroke="#f8967d"></path><path d="M1188.6 190L1263.4 190L1223.4 130.3Z" fill="#e35235" stroke="#e35235"></path><path d="M1223.4 130.3L1303.3 138.3L1242.4 83.7Z" fill="#eb6a4d" stroke="#eb6a4d"></path><path d="M1128.7 203.7L1263.4 190L1188.6 190Z" fill="#ffc0af" stroke="#ffc0af"></path><path d="M1263.4 190L1303.3 138.3L1223.4 130.3Z" fill="#d00000" stroke="#d00000"></path><path d="M1242.4 83.7L1309.4 0L1223.6 0Z" fill="#f8967d" stroke="#f8967d"></path><path d="M252.7 98.3L282.7 190L393.4 125.7Z" fill="#d00000" stroke="#d00000"></path><path d="M393.4 125.7L282.7 190L416.6 190Z" fill="#e35235" stroke="#e35235"></path><path d="M416.6 190L95.9 196.7L440.4 190Z" fill="#ffc0af" stroke="#ffc0af"></path><path d="M1303.3 138.3L1309.4 0L1242.4 83.7Z" fill="#f8967d" stroke="#f8967d"></path><path d="M1223.6 0L1309.4 0L823.9 -17.7Z" fill="#e35235" stroke="#e35235"></path><path d="M357.6 0L252.7 98.3L404.6 65.7Z" fill="#f8967d" stroke="#f8967d"></path><path d="M252.7 98.3L249.8 190L282.7 190Z" fill="#ffd5c9" stroke="#ffd5c9"></path><path d="M282.7 190L95.9 196.7L416.6 190Z" fill="#ffd5c9" stroke="#ffd5c9"></path><path d="M252.7 98.3L226.7 189.7L249.8 190Z" fill="#ffeae4" stroke="#ffeae4"></path><path d="M249.8 190L95.9 196.7L282.7 190Z" fill="#ffeae4" stroke="#ffeae4"></path><path d="M154.9 -8.7L215.7 0L357.6 0Z" fill="#e35235" stroke="#e35235"></path><path d="M357.6 0L215.7 0L252.7 98.3Z" fill="#da361d" stroke="#da361d"></path><path d="M252.7 98.3L135.8 175.7L226.7 189.7Z" fill="#fdab96" stroke="#fdab96"></path><path d="M1388.3 94.7L1382.2 45.7L1303.3 138.3Z" fill="#ffc0af" stroke="#ffc0af"></path><path d="M1303.3 138.3L1382.2 45.7L1309.4 0Z" fill="#ffffff" stroke="#ffffff"></path><path d="M1390.3 190L1388.3 94.7L1303.3 138.3Z" fill="#ffeae4" stroke="#ffeae4"></path><path d="M1435.2 0L1385.3 0L1382.2 45.7Z" fill="#d00000" stroke="#d00000"></path><path d="M1382.2 45.7L1385.3 0L1309.4 0Z" fill="#eb6a4d" stroke="#eb6a4d"></path><path d="M1309.4 0L1385.3 0L823.9 -17.7Z" fill="#eb6a4d" stroke="#eb6a4d"></path><path d="M1263.4 190L1390.3 190L1303.3 138.3Z" fill="#eb6a4d" stroke="#eb6a4d"></path><path d="M1128.7 203.7L1390.3 190L1263.4 190Z" fill="#ffc0af" stroke="#ffc0af"></path><path d="M1390.3 190L1415.2 123.3L1388.3 94.7Z" fill="#f28065" stroke="#f28065"></path><path d="M1446.1 0L1435.2 0L1463.1 94.7Z" fill="#eb6a4d" stroke="#eb6a4d"></path><path d="M154.9 -8.7L168.9 0L215.7 0Z" fill="#ffd5c9" stroke="#ffd5c9"></path><path d="M215.7 0L136.8 75.3L252.7 98.3Z" fill="#e35235" stroke="#e35235"></path><path d="M154.9 -8.7L167.8 0L168.9 0Z" fill="#e35235" stroke="#e35235"></path><path d="M168.9 0L136.8 75.3L215.7 0Z" fill="#eb6a4d" stroke="#eb6a4d"></path><path d="M1128.7 203.7L1418.2 190L1390.3 190Z" fill="#ffffff" stroke="#ffffff"></path><path d="M1390.3 190L1418.2 190L1415.2 123.3Z" fill="#da361d" stroke="#da361d"></path><path d="M823.9 -17.7L154.9 -8.7L439.4 0Z" fill="#d00000" stroke="#d00000"></path><path d="M167.8 0L136.8 75.3L168.9 0Z" fill="#fdab96" stroke="#fdab96"></path><path d="M1382.2 45.7L1388.3 94.7L1463.1 94.7Z" fill="#da361d" stroke="#da361d"></path><path d="M1435.2 0L1382.2 45.7L1463.1 94.7Z" fill="#eb6a4d" stroke="#eb6a4d"></path><path d="M1385.3 0L1435.2 0L823.9 -17.7Z" fill="#ffc0af" stroke="#ffc0af"></path><path d="M154.9 -8.7L136.8 75.3L167.8 0Z" fill="#d00000" stroke="#d00000"></path><path d="M1463.1 94.7L1388.3 94.7L1415.2 123.3Z" fill="#ffc0af" stroke="#ffc0af"></path><path d="M1435.2 0L1446.1 0L823.9 -17.7Z" fill="#ffffff" stroke="#ffffff"></path><path d="M136.8 75.3L135.8 175.7L252.7 98.3Z" fill="#ffd5c9" stroke="#ffd5c9"></path><path d="M1465.1 190L1463.1 94.7L1415.2 123.3Z" fill="#d00000" stroke="#d00000"></path><path d="M1128.7 203.7L1465.1 190L1418.2 190Z" fill="#eb6a4d" stroke="#eb6a4d"></path><path d="M1418.2 190L1465.1 190L1415.2 123.3Z" fill="#ffffff" stroke="#ffffff"></path><path d="M136.8 75.3L95.9 196.7L135.8 175.7Z" fill="#e35235" stroke="#e35235"></path><path d="M135.8 175.7L95.9 196.7L226.7 189.7Z" fill="#e35235" stroke="#e35235"></path><path d="M226.7 189.7L95.9 196.7L249.8 190Z" fill="#d00000" stroke="#d00000"></path><path d="M31.9 190L95.9 196.7L0 112.3Z" fill="#d00000" stroke="#d00000"></path><path d="M1600 156.7L1542.1 45.3L1463.1 94.7Z" fill="#ffc0af" stroke="#ffc0af"></path><path d="M1463.1 94.7L1542.1 45.3L1446.1 0Z" fill="#eb6a4d" stroke="#eb6a4d"></path><path d="M0 112.3L95.9 196.7L136.8 75.3Z" fill="#ffd5c9" stroke="#ffd5c9"></path><path d="M0 0L0 100.7L136.8 75.3Z" fill="#e35235" stroke="#e35235"></path><path d="M0 100.7L0 112.3L136.8 75.3Z" fill="#fdab96" stroke="#fdab96"></path><path d="M154.9 -8.7L0 0L136.8 75.3Z" fill="#ffffff" stroke="#ffffff"></path><path d="M0 112.3L0 190L31.9 190Z" fill="#da361d" stroke="#da361d"></path><path d="M31.9 190L0 190L95.9 196.7Z" fill="#f28065" stroke="#f28065"></path><path d="M1600 156.7L1600 12.3L1542.1 45.3Z" fill="#ffffff" stroke="#ffffff"></path><path d="M1542.1 45.3L1600 0L1446.1 0Z" fill="#fdab96" stroke="#fdab96"></path><path d="M1465.1 190L1600 156.7L1463.1 94.7Z" fill="#f8967d" stroke="#f8967d"></path><path d="M1600 12.3L1600 0L1542.1 45.3Z" fill="#e35235" stroke="#e35235"></path><path d="M1446.1 0L1600 0L823.9 -17.7Z" fill="#f28065" stroke="#f28065"></path><path d="M1128.7 203.7L1600 190L1465.1 190Z" fill="#ffc0af" stroke="#ffc0af"></path><path d="M1465.1 190L1600 190L1600 156.7Z" fill="#da361d" stroke="#da361d"></path></g></svg>