<svg id="visual" viewBox="0 0 1600 190" width="1600" height="190" xmlns="http://www.w3.org/2000/svg" xmlns:xlink="http://www.w3.org/1999/xlink" version="1.1"><rect width="1600" height="190" fill="#E4D6A7"></rect><g><g transform="translate(1288 20)"><path d="M0 -75.3L58.9 -47L73.4 16.8L32.7 67.9L-32.7 67.9L-73.4 16.8L-58.9 -47Z" fill="#D00000"></path></g><g transform="translate(934 41)"><path d="M0 -57L44.6 -35.5L55.6 12.7L24.7 51.4L-24.7 51.4L-55.6 12.7L-44.6 -35.5Z" fill="#D00000"></path></g><g transform="translate(455 34)"><path d="M0 -41L32.1 -25.6L40 9.1L17.8 36.9L-17.8 36.9L-40 9.1L-32.1 -25.6Z" fill="#D00000"></path></g><g transform="translate(677 28)"><path d="M0 -13L10.2 -8.1L12.7 2.9L5.6 11.7L-5.6 11.7L-12.7 2.9L-10.2 -8.1Z" fill="#D00000"></path></g><g transform="translate(195 31)"><path d="M0 -71L55.5 -44.3L69.2 15.8L30.8 64L-30.8 64L-69.2 15.8L-55.5 -44.3Z" fill="#D00000"></path></g><g transform="translate(1067 188)"><path d="M0 -73L57.1 -45.5L71.2 16.2L31.7 65.8L-31.7 65.8L-71.2 16.2L-57.1 -45.5Z" fill="#D00000"></path></g><g transform="translate(818 142)"><path d="M0 -54L42.2 -33.7L52.6 12L23.4 48.7L-23.4 48.7L-52.6 12L-42.2 -33.7Z" fill="#D00000"></path></g><g transform="translate(1564 172)"><path d="M0 -67L52.4 -41.8L65.3 14.9L29.1 60.4L-29.1 60.4L-65.3 14.9L-52.4 -41.8Z" fill="#D00000"></path></g><g transform="translate(1307 179)"><path d="M0 -67L52.4 -41.8L65.3 14.9L29.1 60.4L-29.1 60.4L-65.3 14.9L-52.4 -41.8Z" fill="#D00000"></path></g><g transform="translate(1567 6)"><path d="M0 -45L35.2 -28.1L43.9 10L19.5 40.5L-19.5 40.5L-43.9 10L-35.2 -28.1Z" fill="#D00000"></path></g></g></svg>